<svg xmlns="http://www.w3.org/2000/svg" width="2048" height="620" viewBox="0 0 2048 620" role="img" aria-labelledby="title desc">
  <title id="title">AicodeCat logo</title>
  <desc id="desc">Pixel-art yellow cat head with AicodeCat wordmark.</desc>
  <rect width="2048" height="620" fill="#ffffff"/>
  <g shape-rendering="crispEdges">
    <g transform="translate(70 125) scale(14)">
      <rect x="5" y="4" width="3" height="3" fill="#000"/>
      <rect x="22" y="4" width="3" height="3" fill="#000"/>
      <rect x="4" y="7" width="5" height="8" fill="#000"/>
      <rect x="21" y="7" width="5" height="8" fill="#000"/>
      <rect x="7" y="11" width="16" height="2" fill="#000"/>
      <rect x="5" y="13" width="20" height="20" fill="#000"/>
      <rect x="8" y="7" width="13" height="4" fill="#ffd400"/>
      <rect x="6" y="8" width="4" height="9" fill="#ffd400"/>
      <rect x="20" y="8" width="4" height="9" fill="#ffd400"/>
      <rect x="7" y="13" width="16" height="18" fill="#ffdf1a"/>
      <rect x="8" y="6" width="2" height="5" fill="#ffdf1a"/>
      <rect x="20" y="6" width="2" height="5" fill="#ffdf1a"/>
      <rect x="8" y="8" width="1" height="1" fill="#fff06a"/>
      <rect x="21" y="8" width="1" height="1" fill="#fff06a"/>
      <rect x="5" y="15" width="2" height="12" fill="#ffcd00"/>
      <rect x="23" y="15" width="2" height="12" fill="#ffcd00"/>
      <rect x="8" y="31" width="14" height="2" fill="#ffb400"/>
      <rect x="9" y="12" width="1" height="4" fill="#ff8a00"/>
      <rect x="13" y="11" width="1" height="5" fill="#ff8a00"/>
      <rect x="17" y="11" width="1" height="5" fill="#ff8a00"/>
      <rect x="21" y="12" width="1" height="4" fill="#ff8a00"/>
      <rect x="5" y="18" width="3" height="1" fill="#ff8a00"/>
      <rect x="22" y="18" width="3" height="1" fill="#ff8a00"/>
      <rect x="1" y="21" width="7" height="1" fill="#d23400"/>
      <rect x="22" y="21" width="7" height="1" fill="#d23400"/>
      <rect x="1" y="24" width="7" height="1" fill="#d23400"/>
      <rect x="22" y="24" width="7" height="1" fill="#d23400"/>
      <rect x="10" y="20" width="2" height="2" fill="#4a1b12"/>
      <rect x="19" y="19" width="2" height="3" fill="#4a1b12"/>
      <rect x="14" y="22" width="2" height="1" fill="#9a3a12"/>
      <rect x="12" y="25" width="1" height="1" fill="#4a1b12"/>
      <rect x="13" y="26" width="1" height="1" fill="#4a1b12"/>
      <rect x="14" y="26" width="3" height="1" fill="#4a1b12"/>
      <rect x="17" y="25" width="1" height="1" fill="#4a1b12"/>
      <rect x="18" y="26" width="1" height="1" fill="#4a1b12"/>
    </g>
    <text x="600" y="388"
          fill="#ffd400"
          stroke="#111111"
          stroke-width="22"
          paint-order="stroke fill"
          font-family="'Courier New', Consolas, monospace"
          font-size="170"
          font-weight="900"
          letter-spacing="2">AiCodeCat</text>
    <text x="615" y="405"
          fill="#111111"
          opacity="0.28"
          font-family="'Courier New', Consolas, monospace"
          font-size="170"
          font-weight="900"
          letter-spacing="2">AiCodeCat</text>
  </g>
</svg>
